{
	"asset":{
		"generator":"Khronos glTF Blender I/O v3.6.28",
		"version":"2.0"
	},
	"scene":0,
	"scenes":[
		{
			"name":"Scene",
			"nodes":[
				0,
				1
			]
		}
	],
	"nodes":[
		{
			"mesh":0,
			"name":"Heart",
			"rotation":[
				0.7071068286895752,
				0,
				0,
				0.7071068286895752
			],
			"scale":[
				4.748989582061768,
				4.748989582061768,
				4.748989582061768
			],
			"translation":[
				8.173014640808105,
				5.881810188293457,
				0
			]
		},
		{
			"name":"Empty",
			"rotation":[
				0.70710688829422,
				0,
				0,
				0.7071066498756409
			],
			"scale":[
				2.9770755767822266,
				2.9770755767822266,
				2.9770755767822266
			],
			"translation":[
				0,
				3.1655821800231934,
				0
			]
		}
	],
	"materials":[
		{
			"doubleSided":true,
			"name":"Material.001",
			"pbrMetallicRoughness":{
				"baseColorTexture":{
					"index":0
				},
				"metallicFactor":0.31182795763015747,
				"roughnessFactor":0.897849440574646
			}
		}
	],
	"meshes":[
		{
			"name":"input",
			"primitives":[
				{
					"attributes":{
						"POSITION":0,
						"NORMAL":1,
						"TEXCOORD_0":2
					},
					"indices":3,
					"material":0
				}
			]
		}
	],
	"textures":[
		{
			"sampler":0,
			"source":0
		}
	],
	"images":[
		{
			"mimeType":"image/png",
			"name":"texture_0",
			"uri":"texture_0.png"
		}
	],
	"accessors":[
		{
			"bufferView":0,
			"componentType":5126,
			"count":14854,
			"max":[
				0.5974940061569214,
				0.5451880097389221,
				0.9937989711761475
			],
			"min":[
				-0.6197540163993835,
				-0.5381960272789001,
				-0.9920870065689087
			],
			"type":"VEC3"
		},
		{
			"bufferView":1,
			"componentType":5126,
			"count":14854,
			"type":"VEC3"
		},
		{
			"bufferView":2,
			"componentType":5126,
			"count":14854,
			"type":"VEC2"
		},
		{
			"bufferView":3,
			"componentType":5123,
			"count":61185,
			"type":"SCALAR"
		}
	],
	"bufferViews":[
		{
			"buffer":0,
			"byteLength":178248,
			"byteOffset":0,
			"target":34962
		},
		{
			"buffer":0,
			"byteLength":178248,
			"byteOffset":178248,
			"target":34962
		},
		{
			"buffer":0,
			"byteLength":118832,
			"byteOffset":356496,
			"target":34962
		},
		{
			"buffer":0,
			"byteLength":122370,
			"byteOffset":475328,
			"target":34963
		}
	],
	"samplers":[
		{
			"magFilter":9729,
			"minFilter":9987
		}
	],
	"buffers":[
		{
			"byteLength":597700,
			"uri":"human%20heart%20.bin"
		}
	]
}
